<?xml version="1.0" encoding="UTF-8"?>
<svg id="Capa_1" data-name="Capa 1" xmlns="http://www.w3.org/2000/svg" viewBox="0 0 1000 1000">
  <defs>
    <style>
      .cls-1 {
        fill: #fff;
      }
    </style>
  </defs>
  <g id="_4NFeIn.tif" data-name="4NFeIn.tif">
    <g>
      <path d="M818.1,468.45c-.03-5.23-.08-10.44-.17-15.61-.02-1.73-.04-3.45-.07-5.17-.04-2.81-.09-5.59-.15-8.37-.05-2.78-.11-5.55-.18-8.31-.33-14.83-.82-29.32-1.46-43.23-4.7-102.27-42.26-185.65-153.27-201.47-13.44-1.91-29.84-.17-42.98-4.47h-240.46c-127.38,7.13-189.28,68.86-196.17,196.52-4.33,80.29,3.24,164.42,0,245.11,3.75,12.63,2.77,27.58,4.79,40.64,14.55,93.88,81.98,143.13,173.47,149.54,6.1.43,12.34.82,18.68,1.19,2.95.18,5.93.33,8.92.49,5.61.3,11.31.57,17.07.81,2.15.09,4.32.19,6.5.27,1.82.08,3.65.15,5.48.22,3.02.11,6.06.22,9.11.31,1.29.04,2.58.08,3.88.12.71.03,1.41.05,2.12.06,2.09.07,4.19.12,6.3.19,9.06.25,18.21.45,27.39.58.67.01,1.33.02,2,.03,2.63.04,5.26.07,7.89.1,2.74.03,5.5.06,8.24.08,2.43.03,4.86.04,7.3.05,9.31.06,18.62.06,27.86,0,8.72-.04,17.39-.14,25.97-.27,4.97-.07,9.91-.17,14.81-.28,1.81-.04,3.61-.08,5.41-.12,2.63-.06,5.25-.12,7.86-.21,1.98-.05,3.94-.11,5.89-.17,11.1-.34,21.93-.76,32.41-1.25,145.68-6.83,198.15-72.4,203.55-214.48.09-2.38.18-4.78.26-7.19.04-1.19.08-2.37.12-3.57.03-.83.06-1.67.08-2.52.08-2.23.15-4.49.22-6.75.03-1.13.07-2.27.1-3.4.07-2.28.14-4.56.2-6.85.2-7.29.36-14.67.51-22.11.03-1.06.05-2.12.06-3.18.04-2.07.08-4.13.11-6.2.03-1.77.06-3.54.08-5.32.03-1.93.06-3.87.08-5.8.04-3.42.08-6.85.11-10.29.01-.45.01-.89.01-1.34.02-1.94.04-3.89.05-5.84.03-3.4.05-6.81.06-10.22.04-10.79.02-21.59-.06-32.33ZM756.9,639.27c-7.13,89.96-65.35,114.82-146.58,119.4-66.08,3.73-155.37,3.74-221.44,0-104.73-5.93-140.39-38.24-146.65-142.59-4.78-79.89-6.42-180.38.06-259.9,6.94-85.26,61-112.2,138.75-116.69,70.29-4.05,158.91-3.93,229.38-.71,81.97,3.74,139.33,28.6,146.48,119.51,6.51,82.84,6.56,198.16,0,280.97Z"/>
      <path class="cls-1" d="M466.89,817.86h79.25c-8.58.14-17.25.23-25.97.27-9.24.06-18.54.06-27.86,0-2.43-.01-4.87-.02-7.3-.05-2.74-.02-5.5-.05-8.24-.08-2.63-.03-5.26-.06-7.89-.1-.67-.01-1.33-.02-2-.03Z"/>
      <path class="cls-1" d="M818.16,500.78c-.01,3.41-.03,6.82-.06,10.22v-42.55c.08,10.74.1,21.54.06,32.33Z"/>
      <path d="M492.88,336.64c-113.6,1.84-188.6,119.94-145.53,224.86,44.88,109.36,191.78,134.55,270.42,46.17,94.83-106.57,17.43-273.33-124.89-271.02ZM524.97,601.34c-144.67,35.09-182.32-192.74-36.36-207.59,129.6-13.18,160.9,177.37,36.36,207.59Z"/>
      <path d="M667.5,367.54c-8.3-.15-20.18-4.96-25.85-11.06-27.16-29.19,2.47-77.28,41.45-61.6,37.18,14.96,26.13,73.37-15.59,72.66Z"/>
    </g>
  </g>
</svg>