<?xml version="1.0" encoding="UTF-8"?>
<svg id="Capa_1" xmlns="http://www.w3.org/2000/svg" version="1.1" viewBox="0 0 421.38 79.89">
  <!-- Generator: Adobe Illustrator 30.0.0, SVG Export Plug-In . SVG Version: 2.1.1 Build 72)  -->
  <defs>
    <style>
      .st0 {
        fill: #fff;
      }
    </style>
  </defs>
  <path class="st0" d="M32.22,5.6h16.43l26.23,68.7h-17.1l-5.48-14.51h-23.54l-5.48,14.51H5.99L32.22,5.6ZM47.3,45.76l-6.82-21.04-6.92,21.04h13.74Z"/>
  <path class="st0" d="M133.49,5.6v68.7h-13.93l-29.21-40.45v40.45h-17.01V5.6h14.32l29.11,39.78V5.6h16.72Z"/>
  <path class="st0" d="M140.69,5.6h17.01v68.7h-17.01V5.6Z"/>
  <path class="st0" d="M197.96,60.27l-15.95-24.79v38.82h-17.1V5.6h15.18l21.43,33.05,21.24-33.05h14.89v68.7h-16.81v-38.82l-15.95,24.79h-6.93Z"/>
  <path class="st0" d="M262.43,5.6h16.43l26.23,68.7h-17.1l-5.48-14.51h-23.54l-5.48,14.51h-17.3l26.23-68.7h.01ZM277.51,45.76l-6.82-21.04-6.92,21.04h13.74Z"/>
  <path class="st0" d="M313.64,44.22l-24.69-38.63h18.54l14.7,24.5,14.7-24.5h18.35l-24.69,38.63v30.07h-16.91v-30.07h0Z"/>
  <path class="st0" d="M396.22,7.23c4.39,1.86,8.17,4.37,11.34,7.54,3.17,3.17,5.65,6.92,7.45,11.24,1.79,4.32,2.69,8.92,2.69,13.79s-.9,9.56-2.69,13.88-4.28,8.1-7.45,11.34c-3.17,3.24-6.95,5.78-11.34,7.64-4.39,1.86-9.24,2.79-14.56,2.79s-9.96-.93-14.51-2.79c-4.55-1.86-8.41-4.39-11.58-7.59-3.17-3.2-5.64-6.98-7.4-11.34-1.76-4.36-2.64-9-2.64-13.93s.88-9.45,2.64-13.74,4.23-8.04,7.4-11.24c3.17-3.2,7.03-5.73,11.58-7.59,4.55-1.86,9.38-2.79,14.51-2.79s10.17.93,14.56,2.79ZM374.17,21.79c-2.24.99-4.16,2.37-5.77,4.13-1.6,1.76-2.88,3.83-3.84,6.2-.96,2.37-1.44,4.96-1.44,7.78s.48,5.33,1.44,7.73c.96,2.4,2.24,4.5,3.84,6.29s3.52,3.19,5.77,4.18c2.24.99,4.74,1.49,7.49,1.49s5.25-.5,7.49-1.49,4.18-2.37,5.81-4.13c1.63-1.76,2.91-3.86,3.84-6.29s1.39-5.06,1.39-7.88-.47-5.32-1.39-7.69c-.93-2.37-2.21-4.45-3.84-6.25-1.63-1.79-3.57-3.17-5.81-4.13-2.24-.96-4.74-1.44-7.49-1.44s-5.25.5-7.49,1.49h0Z"/>
</svg>