<?xml version="1.0" encoding="UTF-8"?>
<svg id="Capa_1" data-name="Capa 1" xmlns="http://www.w3.org/2000/svg" viewBox="0 0 1000 1000">
  <path d="M849.04,324.65c-8.38-31.34-33.07-56.03-64.41-64.41-56.81-15.23-284.63-15.23-284.63-15.23,0,0-227.82,0-284.63,15.23-31.34,8.38-56.03,33.07-64.41,64.41-15.23,56.81-15.23,175.35-15.23,175.35,0,0,0,118.54,15.23,175.35,8.38,31.34,33.07,56.03,64.41,64.41,56.81,15.23,284.63,15.23,284.63,15.23,0,0,227.82,0,284.63-15.23,31.34-8.38,56.03-33.07,64.41-64.41,15.23-56.81,15.23-175.35,15.23-175.35,0,0,0-118.54-15.23-175.35ZM427.15,609.28v-218.56l189.27,109.28-189.27,109.28Z"/>
</svg>